<?xml version="1.0" encoding="utf-8"?>
<!-- Generator: Adobe Illustrator 17.0.0, SVG Export Plug-In . SVG Version: 6.00 Build 0)  -->
<!DOCTYPE svg PUBLIC "-//W3C//DTD SVG 1.1//EN" "http://www.w3.org/Graphics/SVG/1.1/DTD/svg11.dtd">
<svg version="1.1" id="图层_1" xmlns="http://www.w3.org/2000/svg" xmlns:xlink="http://www.w3.org/1999/xlink" x="0px" y="0px"
	 width="248.038px" height="182.009px" viewBox="0 0 248.038 182.009" enable-background="new 0 0 248.038 182.009"
	 xml:space="preserve">
<g>
	<path fill="#FFFFFF" d="M190.512,158.087l-0.57-0.185c0,0-4.53-1.473-9.056-2.968c-9.899-3.271-9.899-3.271-9.741-4.271l0.141-0.89
		l0.916-0.004c0.13,0,0.251,0.021,0.403,0.056c0.349,0.078,0.752,0.118,1.196,0.118c4.502,0,12.268-3.937,18.508-7.1
		c7.046-3.572,10.166-5.062,11.557-3.815c0.599,0.539,2.191,1.969-5.825,12.44l-0.143,0.153L190.512,158.087z"/>
	<path fill="#FFFFFF" d="M221.354,98.478c-1.813,0-3.239-2.692-6.038-8.293c-2.811-5.623-6.31-12.621-10.072-14.479
		c-0.89-0.439-0.764-1.191-0.731-1.337c0.219-0.937,1.26-0.937,1.882-0.937c3.422,0,15.357,1.49,15.863,1.554l0.776,0.097
		l1.717,9.957l-0.003,0.105c-0.363,13.181-2.5,13.291-3.305,13.333L221.354,98.478z"/>
	<g>
		<path fill="#FFFFFF" d="M143.049,15.629L109.496,7.72c0,0-44.921,16.399-71.418,42.56c18.388,3.753,23.745,2.757,23.745,2.757
			L143.049,15.629z"/>
		<path fill="#FFFFFF" d="M59.573,54.915c0,0-0.001,0-0.001,0c-3.456,0-10.051-0.505-21.846-2.912
			c-0.636-0.13-1.149-0.6-1.334-1.222c-0.185-0.622-0.012-1.296,0.45-1.751C63.306,22.901,108.44,6.235,108.893,6.068
			c0.322-0.117,0.671-0.14,1.007-0.06l33.553,7.908c0.73,0.172,1.271,0.79,1.346,1.536c0.075,0.746-0.332,1.459-1.014,1.772
			L62.558,54.634c-0.132,0.061-0.271,0.105-0.414,0.132C62.01,54.791,61.256,54.915,59.573,54.915z M41.741,49.21
			c9.977,1.887,15.392,2.189,17.831,2.189h0.001c0.925,0,1.489-0.042,1.757-0.07l76.345-35.161l-28.062-6.613
			C104.846,11.361,66.375,26.373,41.741,49.21z"/>
	</g>
	<path fill="#FFFFFF" d="M174.54,52.038c-5.891,0-10.683,4.793-10.683,10.683s4.792,10.683,10.683,10.683
		s10.683-4.793,10.683-10.683S180.431,52.038,174.54,52.038z M176.08,68.84c-3.528,0-6.388-2.739-6.388-6.118
		c0-3.379,2.86-6.118,6.388-6.118s6.388,2.739,6.388,6.118C182.468,66.101,179.608,68.84,176.08,68.84z"/>
	<path fill="#FFFFFF" d="M107.54,91.334c-0.083,0-0.167-0.006-0.251-0.018c-8.854-1.265-17.752-8.19-18.126-8.484
		c-0.763-0.6-0.896-1.704-0.297-2.468c0.599-0.762,1.704-0.897,2.468-0.297c0.084,0.066,8.542,6.639,16.451,7.768
		c0.961,0.137,1.629,1.028,1.492,1.989C109.153,90.702,108.4,91.334,107.54,91.334z"/>
	<path fill="#FFFFFF" d="M101.928,99.22c-0.061,0-0.123-0.004-0.185-0.009c-9.422-0.986-18.665-3.741-19.054-3.858
		c-0.93-0.278-1.458-1.259-1.179-2.189s1.26-1.462,2.189-1.178c0.092,0.027,9.325,2.776,18.409,3.727
		c0.966,0.102,1.666,0.966,1.566,1.931C103.58,98.548,102.817,99.22,101.928,99.22z"/>
	<path fill="#FFFFFF" d="M78.499,110.666c-0.556,0-0.896-0.006-0.971-0.007c-0.97-0.02-1.741-0.822-1.722-1.793
		c0.019-0.959,0.803-1.723,1.757-1.723c0.012,0,0.024,0,0.036,0c0.118,0.006,11.576,0.201,20.272-2.178
		c0.934-0.252,1.903,0.296,2.16,1.233c0.256,0.936-0.295,1.903-1.232,2.16C91.024,110.482,81.54,110.666,78.499,110.666z"/>
	<path fill="#FFFFFF" d="M212.298,91.182c-1.789,0-3.542,0.096-5.209,0.287c-12.541,1.431-25.798,9.753-27.144,25.121
		c-0.206,2.346,0.134,4.792,1.01,7.269c1.637,4.629,5.144,9.341,10.142,13.627c7.658,6.565,17.387,10.977,24.21,10.977h0.001
		c4.097,0,6.167-1.624,7.183-2.987c2.968-3.982,3.43-7.788,3.837-11.145c0.325-2.682,0.632-5.216,2.122-7.804
		c0.574-0.998,1.291-1.995,2.19-3.047c0.82-0.96,1.706-1.871,2.563-2.751c2.55-2.618,5.186-5.325,5.942-9.326
		c0.167-0.884,0.237-1.759,0.215-2.679C239.043,95.776,224.584,91.182,212.298,91.182z M227.965,121.197
		c-0.231,0.271-0.449,0.538-0.661,0.805c-0.029-0.017-0.059-0.032-0.088-0.05c-0.273-0.161-0.549-0.318-0.828-0.467
		c-0.373-0.2-0.753-0.386-1.135-0.564c-0.271-0.126-0.542-0.252-0.817-0.367c-0.397-0.167-0.801-0.316-1.206-0.46
		c-0.277-0.098-0.553-0.199-0.833-0.286c-0.41-0.128-0.826-0.236-1.243-0.34c-0.286-0.072-0.57-0.149-0.859-0.21
		c-0.419-0.088-0.843-0.153-1.266-0.218c-0.292-0.044-0.583-0.098-0.877-0.131c-0.432-0.049-0.868-0.071-1.303-0.095
		c-0.288-0.016-0.575-0.045-0.865-0.05c-0.473-0.008-0.948,0.015-1.423,0.035c-0.252,0.011-0.503,0.006-0.754,0.026
		c-0.725,0.056-1.451,0.143-2.175,0.268c-0.551,0.095-1.096,0.211-1.633,0.345c-0.172,0.043-0.338,0.099-0.508,0.145
		c-0.362,0.099-0.725,0.196-1.08,0.313c-0.202,0.066-0.397,0.146-0.596,0.217c-0.317,0.114-0.636,0.223-0.946,0.35
		c-0.205,0.084-0.404,0.181-0.606,0.271c-0.295,0.131-0.593,0.257-0.881,0.4c-0.207,0.102-0.405,0.217-0.609,0.325
		c-0.275,0.147-0.553,0.29-0.821,0.447c-0.202,0.118-0.395,0.248-0.593,0.372c-0.26,0.163-0.523,0.323-0.776,0.497
		c-0.193,0.132-0.379,0.275-0.568,0.414c-0.246,0.18-0.494,0.357-0.733,0.546c-0.185,0.147-0.362,0.303-0.542,0.455
		c-0.231,0.195-0.464,0.388-0.687,0.592c-0.176,0.161-0.344,0.33-0.515,0.497c-0.215,0.209-0.431,0.416-0.638,0.633
		c-0.166,0.174-0.323,0.356-0.484,0.536c-0.199,0.222-0.398,0.443-0.588,0.674c-0.155,0.187-0.301,0.381-0.45,0.573
		c-0.182,0.235-0.364,0.469-0.537,0.711c-0.142,0.199-0.276,0.404-0.413,0.608c-0.164,0.246-0.329,0.493-0.484,0.745
		c-0.129,0.211-0.25,0.427-0.373,0.642c-0.147,0.257-0.293,0.515-0.43,0.779c-0.115,0.222-0.222,0.448-0.33,0.674
		c-0.128,0.267-0.254,0.534-0.372,0.806c-0.1,0.232-0.193,0.469-0.286,0.706c-0.109,0.276-0.215,0.552-0.314,0.834
		c-0.084,0.241-0.161,0.486-0.237,0.731c-0.006,0.018-0.012,0.037-0.018,0.055c-0.066-0.056-0.136-0.11-0.202-0.167
		c-0.232-0.199-0.445-0.402-0.67-0.603c-0.284-0.253-0.572-0.504-0.844-0.76c0.024-0.067,0.049-0.133,0.073-0.199
		c0.128-0.354,0.254-0.709,0.397-1.056c0.093-0.225,0.198-0.442,0.296-0.663c0.142-0.316,0.281-0.633,0.435-0.943
		c0.113-0.228,0.237-0.448,0.357-0.672c0.157-0.292,0.313-0.585,0.48-0.87c0.132-0.224,0.272-0.441,0.41-0.66
		c0.173-0.274,0.346-0.547,0.528-0.814c0.148-0.216,0.304-0.426,0.459-0.638c0.188-0.257,0.378-0.513,0.576-0.763
		c0.164-0.207,0.334-0.409,0.504-0.61c0.204-0.241,0.409-0.479,0.622-0.712c0.179-0.197,0.362-0.388,0.547-0.579
		c0.218-0.225,0.44-0.446,0.667-0.662c0.192-0.183,0.386-0.364,0.584-0.541c0.234-0.21,0.472-0.414,0.714-0.615
		c0.204-0.169,0.408-0.337,0.617-0.5c0.249-0.194,0.503-0.381,0.76-0.566c0.214-0.154,0.427-0.308,0.645-0.455
		c0.264-0.178,0.534-0.348,0.806-0.516c0.222-0.138,0.443-0.277,0.67-0.408c0.28-0.162,0.566-0.313,0.853-0.464
		c0.229-0.12,0.455-0.244,0.688-0.358c0.299-0.146,0.605-0.279,0.91-0.414c0.23-0.101,0.457-0.207,0.69-0.302
		c0.325-0.131,0.657-0.247,0.988-0.365c0.223-0.08,0.442-0.166,0.668-0.24c0.372-0.121,0.753-0.224,1.132-0.327
		c0.192-0.053,0.38-0.114,0.574-0.162c0.577-0.143,1.161-0.268,1.753-0.371c0.794-0.137,1.591-0.233,2.387-0.294
		c0.304-0.023,0.608-0.016,0.912-0.029c0.494-0.019,0.987-0.046,1.479-0.036c0.342,0.006,0.682,0.042,1.023,0.063
		c0.453,0.027,0.906,0.048,1.356,0.099c0.345,0.04,0.686,0.106,1.029,0.16c0.442,0.07,0.885,0.134,1.322,0.227
		c0.336,0.072,0.666,0.166,0.999,0.251c0.438,0.112,0.875,0.222,1.307,0.358c0.324,0.102,0.64,0.223,0.96,0.338
		c0.43,0.154,0.858,0.31,1.28,0.488c0.314,0.133,0.621,0.282,0.93,0.428c0.411,0.194,0.82,0.39,1.221,0.607
		c0.311,0.168,0.615,0.351,0.92,0.533c0.099,0.059,0.196,0.123,0.294,0.184c-0.239,0.263-0.479,0.518-0.714,0.793
		C227.973,121.188,227.969,121.192,227.965,121.197z M235.689,110.75c-0.007,0.038-0.021,0.072-0.028,0.109
		c-0.137-0.089-0.277-0.172-0.415-0.26c-0.363-0.23-0.723-0.466-1.092-0.683c-0.438-0.256-0.885-0.49-1.331-0.727
		c-0.375-0.199-0.747-0.407-1.127-0.593c-0.456-0.223-0.921-0.421-1.385-0.624c-0.384-0.168-0.764-0.346-1.153-0.501
		c-0.475-0.19-0.96-0.352-1.442-0.521c-0.388-0.136-0.773-0.284-1.165-0.407c-0.498-0.156-1.005-0.282-1.509-0.416
		c-0.386-0.103-0.769-0.219-1.159-0.309c-0.533-0.123-1.073-0.215-1.612-0.314c-0.369-0.068-0.735-0.152-1.107-0.209
		c-0.604-0.092-1.215-0.149-1.825-0.211c-0.314-0.032-0.624-0.081-0.938-0.105c-0.927-0.07-1.86-0.107-2.797-0.107
		c-2.109,0-4.242,0.184-6.338,0.547c-0.675,0.117-1.344,0.252-2.006,0.405c-0.209,0.048-0.413,0.109-0.62,0.16
		c-0.452,0.112-0.904,0.222-1.349,0.351c-0.241,0.07-0.477,0.153-0.717,0.228c-0.405,0.126-0.811,0.247-1.21,0.387
		c-0.26,0.091-0.513,0.195-0.77,0.291c-0.372,0.139-0.745,0.274-1.111,0.424c-0.264,0.109-0.521,0.231-0.781,0.345
		c-0.352,0.155-0.707,0.304-1.053,0.47c-0.262,0.125-0.517,0.263-0.776,0.394c-0.336,0.17-0.675,0.336-1.005,0.516
		c-0.261,0.142-0.514,0.297-0.771,0.446c-0.32,0.185-0.642,0.365-0.956,0.56c-0.255,0.158-0.502,0.327-0.752,0.491
		c-0.306,0.2-0.615,0.396-0.916,0.606c-0.248,0.173-0.488,0.357-0.732,0.536c-0.293,0.215-0.588,0.426-0.874,0.649
		c-0.241,0.188-0.473,0.387-0.709,0.581c-0.278,0.229-0.559,0.454-0.83,0.691c-0.231,0.202-0.454,0.414-0.68,0.621
		c-0.266,0.244-0.534,0.485-0.793,0.737c-0.22,0.214-0.431,0.437-0.645,0.657c-0.253,0.259-0.508,0.515-0.754,0.782
		c-0.209,0.227-0.409,0.463-0.613,0.696c-0.239,0.273-0.48,0.543-0.711,0.823c-0.197,0.238-0.384,0.485-0.575,0.728
		c-0.225,0.287-0.453,0.574-0.67,0.869c-0.183,0.249-0.358,0.506-0.535,0.76c-0.211,0.302-0.423,0.602-0.626,0.911
		c-0.17,0.259-0.331,0.526-0.495,0.79c-0.015,0.025-0.031,0.049-0.046,0.073c-0.152-0.457-0.287-0.911-0.394-1.362
		c-0.118-0.496-0.208-0.987-0.271-1.473c0.068-0.098,0.134-0.197,0.202-0.295c0.126-0.178,0.245-0.362,0.373-0.538
		c0.41-0.561,0.833-1.11,1.27-1.647c0.071-0.087,0.147-0.168,0.218-0.254c0.371-0.447,0.748-0.888,1.137-1.317
		c0.161-0.178,0.331-0.347,0.496-0.521c0.308-0.327,0.616-0.655,0.935-0.97c0.195-0.193,0.397-0.377,0.596-0.566
		c0.301-0.285,0.601-0.57,0.91-0.846c0.214-0.19,0.434-0.373,0.652-0.559c0.305-0.26,0.611-0.518,0.924-0.768
		c0.23-0.183,0.464-0.36,0.698-0.538c0.312-0.238,0.625-0.474,0.944-0.702c0.243-0.174,0.489-0.342,0.736-0.51
		c0.321-0.219,0.644-0.433,0.971-0.642c0.253-0.162,0.509-0.319,0.766-0.475c0.331-0.201,0.666-0.397,1.004-0.588
		c0.261-0.148,0.523-0.293,0.788-0.435c0.344-0.184,0.691-0.361,1.041-0.535c0.267-0.133,0.534-0.265,0.805-0.392
		c0.358-0.168,0.72-0.326,1.083-0.483c0.27-0.117,0.539-0.235,0.813-0.346c0.376-0.152,0.757-0.294,1.138-0.434
		c0.268-0.099,0.534-0.202,0.805-0.295c0.402-0.138,0.809-0.264,1.217-0.389c0.257-0.079,0.512-0.164,0.771-0.238
		c0.454-0.13,0.914-0.244,1.375-0.357c0.218-0.054,0.433-0.115,0.653-0.166c0.683-0.156,1.371-0.297,2.066-0.417
		c2.215-0.383,4.468-0.578,6.698-0.578c0.972,0,1.938,0.04,2.899,0.111c0.316,0.023,0.627,0.07,0.942,0.101
		c0.643,0.063,1.285,0.127,1.922,0.222c0.372,0.056,0.739,0.133,1.108,0.199c0.574,0.103,1.148,0.205,1.716,0.334
		c0.387,0.088,0.769,0.194,1.153,0.294c0.542,0.14,1.083,0.283,1.618,0.447c0.39,0.12,0.776,0.254,1.162,0.386
		c0.52,0.178,1.037,0.359,1.549,0.559c0.386,0.151,0.768,0.312,1.15,0.476c0.501,0.214,0.998,0.436,1.491,0.671
		c0.379,0.181,0.754,0.37,1.128,0.564c0.484,0.251,0.962,0.513,1.436,0.785c0.317,0.181,0.632,0.368,0.944,0.559
		c0.006,0.114,0.018,0.224,0.021,0.339c0.007,0.3-0.004,0.591-0.023,0.881C235.796,110.046,235.755,110.399,235.689,110.75z"/>
	<circle fill="#FFFFFF" cx="177.87" cy="60.451" r="2.27"/>
	<path fill="#FFFFFF" d="M226.57,83.21c-0.475-2.155-5.063-21.581-19.658-39.701c-15.853-19.683-36.651-29.661-61.818-29.661
		c-0.687,0-1.386,0.007-2.084,0.022c-18.618,0.412-58.661,9.654-118.689,66.537c-1.778-4.284-3.439-8.716-4.951-13.212
		c-0.226-0.674-0.836-1.144-1.545-1.193c-0.696-0.047-1.377,0.332-1.695,0.967C9.284,80.679,8.698,96.075,8.676,96.724
		c-0.025,0.735,0.411,1.407,1.092,1.686c0.682,0.277,1.463,0.104,1.961-0.439c0.045-0.049,4.267-4.64,11.366-11.519
		c12.3,27.567,30.393,50.497,52.44,66.429c25.006,18.068,47.169,22.067,58.154,22.841c3.101,0.219,5.907,0.325,8.576,0.325
		c17.252,0,34.283-4.213,61.319-24.77c0.591-0.449,0.836-1.221,0.612-1.93c-0.224-0.708-0.869-1.198-1.611-1.226
		c-13.747-0.509-25.359-5.702-33.58-15.02c-9.754-11.054-14.201-26.976-12.912-46.149c10.944,2.967,21.285,4.41,31.544,4.41
		c15.036-0.001,28.052-3.253,37.712-6.087C226.236,85.016,226.77,84.113,226.57,83.21z M136.847,96.416
		c-1.294,0.791-32.002,19.424-59.734,24.236c-0.1,0.018-0.201,0.026-0.301,0.026c-0.454,0-0.896-0.177-1.227-0.498
		c-0.404-0.394-0.595-0.957-0.513-1.515c3.896-26.592,19.613-42.997,20.28-43.683c0.525-0.54,1.335-0.683,2.016-0.361l39.318,18.709
		c0.583,0.277,0.966,0.852,1,1.495C137.719,95.469,137.397,96.081,136.847,96.416z M174.54,76.921c-7.83,0-14.2-6.37-14.2-14.2
		s6.37-14.2,14.2-14.2c7.83,0,14.2,6.37,14.2,14.2S182.37,76.921,174.54,76.921z"/>
</g>
<g>
</g>
<g>
</g>
<g>
</g>
<g>
</g>
<g>
</g>
<g>
</g>
</svg>
