<?xml version="1.0" encoding="UTF-8" standalone="no"?>
<svg width="116px" height="116px" viewBox="0 0 116 116" version="1.1" xmlns="http://www.w3.org/2000/svg" xmlns:xlink="http://www.w3.org/1999/xlink">
    <!-- Generator: Sketch 49 (51002) - http://www.bohemiancoding.com/sketch -->
    <title>Group 5</title>
    <desc>Created with Sketch.</desc>
    <defs>
        <linearGradient x1="75.9949367%" y1="-1.55182031%" x2="-0.592405063%" y2="270.649349%" id="linearGradient-1">
            <stop stop-color="#FCFDFE" offset="0%"></stop>
            <stop stop-color="#EEEEEE" offset="32%"></stop>
            <stop stop-color="#F0F0F0" offset="40%"></stop>
            <stop stop-color="#FBFBFB" offset="100%"></stop>
        </linearGradient>
        <linearGradient x1="1825.94565%" y1="4571%" x2="582.229973%" y2="22389%" id="linearGradient-2">
            <stop stop-color="#C9C9C9" offset="0%"></stop>
            <stop stop-color="#A7A7A7" offset="7%"></stop>
            <stop stop-color="#9C9C9C" offset="14%"></stop>
            <stop stop-color="#898989" offset="21%"></stop>
            <stop stop-color="#808080" offset="23%"></stop>
            <stop stop-color="#B5B5B5" offset="100%"></stop>
        </linearGradient>
        <linearGradient x1="7271.82114%" y1="7737%" x2="2534.22457%" y2="27025%" id="linearGradient-3">
            <stop stop-color="#C9C9C9" offset="0%"></stop>
            <stop stop-color="#EEEEEE" offset="32%"></stop>
            <stop stop-color="#F0F0F0" offset="40%"></stop>
            <stop stop-color="#FBFBFB" offset="100%"></stop>
        </linearGradient>
        <linearGradient x1="7271.82114%" y1="7737%" x2="2534.22457%" y2="27025%" id="linearGradient-4">
            <stop stop-color="#FCFDFE" offset="0%"></stop>
            <stop stop-color="#EEEEEE" offset="32%"></stop>
            <stop stop-color="#F0F0F0" offset="40%"></stop>
            <stop stop-color="#FBFBFB" offset="100%"></stop>
        </linearGradient>
        <linearGradient x1="2827.41989%" y1="15812%" x2="680.670585%" y2="36150%" id="linearGradient-5">
            <stop stop-color="#FCFDFE" offset="0%"></stop>
            <stop stop-color="#EEEEEE" offset="32%"></stop>
            <stop stop-color="#F0F0F0" offset="40%"></stop>
            <stop stop-color="#FBFBFB" offset="100%"></stop>
        </linearGradient>
    </defs>
    <g id="个人中心" stroke="none" stroke-width="1" fill="none" fill-rule="evenodd">
        <g id="站内信－消息为空2" transform="translate(-1191.000000, -132.000000)">
            <g id="Group-5" transform="translate(1191.000000, 132.000000)">
                <circle id="Oval" fill="#E0E0E0" cx="58" cy="58" r="58"></circle>
                <g id="7635-[转换]" transform="translate(18.000000, 20.000000)">
                    <g id="Group" opacity="0.5" style="mix-blend-mode: color-burn;" transform="translate(0.000000, 20.229885)" fill-rule="nonzero" stroke="#626262" stroke-width="13">
                        <path d="M6.50493197,6.65847619 L6.50493197,39.4770115 L73.4954061,39.4770115 L73.4954061,6.65847619 L6.50493197,6.65847619 Z" id="Shape"></path>
                    </g>
                    <rect id="Rectangle-path" fill="#EAEAEA" fill-rule="nonzero" x="4.60246305" y="22.8632381" width="70.5357143" height="39.0095238"></rect>
                    <g id="Group-3" transform="translate(4.597701, 0.000000)">
                        <path d="M70.5404762,22.8571429 L70.5404762,18.9988571 C70.5402705,18.6529357 70.3292284,18.3320075 69.9833333,18.151619 L36.1607143,0.152380952 C35.9898376,0.0627921153 34.5554004,0.0627921153 34.3845238,0.152380952 L0.583333333,18.1333333 C0.224040296,18.3210308 0.00491453931,18.6546069 0.00476190476,19.0140952 L0.00476190476,22.8571429 L70.5404762,22.8571429 Z" id="Shape" fill="url(#linearGradient-1)"></path>
                        <path d="M33.4192893,6.10423247 L1.36547619,22.8632381 L69.1797619,22.8632381 L37.1259488,6.10423247 C35.9649509,5.49721669 34.5802871,5.49721669 33.4192893,6.10423247 Z" id="Shape" fill="url(#linearGradient-2)"></path>
                    </g>
                    <g id="Group-4" transform="translate(4.597701, 25.600000)">
                        <polygon id="Shape" fill="url(#linearGradient-3)" points="0 0 0 35.6571429 70.5357143 35.6571429 70.5357143 0 35.2678571 19.0066709"></polygon>
                        <polygon id="Shape" fill="url(#linearGradient-4)" points="0.00476190476 1.68228571 0.00476190476 36.2727619 70.5404762 36.2727619 70.5404762 1.68228571 35.272619 20.120381"></polygon>
                    </g>
                    <g id="Group-2" transform="translate(4.597701, 37.790476)">
                        <path d="M70.5404762,24.0761905 L70.5404762,19.9794343 C70.5402705,19.6121324 70.3292284,19.2713685 69.9833333,19.0798307 L36.5178571,0.162266381 C36.1276813,-0.0540887937 34.4175567,-0.0540887937 34.027381,0.162266381 L0.561904762,19.0798307 C0.216009655,19.2713685 0.00496763231,19.6121324 0.00476190476,19.9794343 L0.00476190476,24.0761905 L70.5404762,24.0761905 Z" id="Shape" fill="#DDDDDD" fill-rule="nonzero"></path>
                        <path d="M70.5357143,24.1985352 L70.5357143,20.3402495 C70.5355086,19.994328 70.3244665,19.6733999 69.9785714,19.4930114 L35.9035714,1.67663045 C35.5133956,1.47286922 35.0223187,1.47286922 34.6321429,1.67663045 L0.557142857,19.4930114 C0.21124775,19.6733999 0.000205727544,19.994328 0,20.3402495 L0,24.1985352 L70.5357143,24.1985352 Z" id="Shape" fill="url(#linearGradient-5)"></path>
                    </g>
                </g>
            </g>
        </g>
    </g>
</svg>