<svg xmlns="http://www.w3.org/2000/svg" width="120" height="87" viewBox="0 0 120 87">
  <g fill="none">
    <g fill="#FF901D" transform="translate(0 7.969)">
      <path d="M8.62078125 8.77007812C11.4689062 5.66273437 14.4534375 2.86664062 17.7396094.270703125 18.1260937-.034453125 18.6825.3309375 18.553125.806015625 16.7111719 7.5759375 13.4929687 14.2664062 8.53195312 19.2400781 8.3090625 15.7582031 8.30578125 12.2472656 8.62078125 8.77007812zM8.5321875 19.2426562C5.66789062 15.7860937 3.20648437 12.2123437.988828125 8.3540625.735234375 7.91296875.060703125 8.07023437.034921875 8.57859375-.36515625 16.4819531 2.65453125 25.7294531 10.0115625 29.4592969 9.2784375 26.0983594 8.75015625 22.678125 8.5321875 19.2426562z"/>
      <path d="M10.0110938 29.4567187C11.8136719 25.7477344 13.8314063 22.2970312 16.1964844 18.9522656 16.4770312 18.5554687 17.1063281 18.7373437 17.1267187 19.2229687 17.4147656 26.0500781 16.2433594 33.2669531 12.9721875 39.2599219 11.7595313 36.0700781 10.7367188 32.7935156 10.0110938 29.4567187zM12.9728906 39.2622656C9.25359375 36.871875 5.85609375 34.2583594 2.59710937 31.3225781 2.22117187 30.9839062 1.63148437 31.3375781 1.75875 31.8271875 3.72210937 39.3761719 9.33679687 47.1229687 17.3303906 48.49125 15.6686719 45.5240625 14.1801562 42.4441406 12.9728906 39.2622656z"/>
      <path d="M17.3289844 48.4891406C17.9805469 44.4428906 18.9124219 40.5829687 20.2096875 36.7239844 20.3639062 36.2650781 21.0157031 36.2561719 21.1774219 36.7127344 23.4461719 43.1177344 24.3651563 50.34375 22.9964062 56.9845313 20.915625 54.2915625 18.9907031 51.4614844 17.3289844 48.4891406zM22.9978125 56.9866406C18.7582031 55.7854687 14.7527344 54.2833594 10.7859375 52.4421094 10.3277344 52.2292969 9.86835937 52.7392969 10.1325 53.1698437 14.2110937 59.8211719 21.8470312 65.5797656 29.8896094 64.5874219 27.4207031 62.2221094 25.0877344 59.6953125 22.9978125 56.9866406z"/>
      <path d="M29.8877344 64.5857812C29.3092969 60.5090625 29.0634375 56.5328906 29.1771094 52.445625 29.1904688 51.9611719 29.8120313 51.7626562 30.0998438 52.1526562 34.1620313 57.66 37.1925 64.35 37.9176563 71.1325781 35.0929688 69.1474219 32.3807812 66.9775781 29.8877344 64.5857812zM111.379219 8.77007812C108.531094 5.66273437 105.546563 2.86664062 102.260391.270703125 101.873906-.034453125 101.3175.3309375 101.446875.806015625 103.288828 7.5759375 106.507031 14.2664062 111.468047 19.2400781 111.690938 15.7582031 111.694219 12.2472656 111.379219 8.77007812zM111.467813 19.2426562C114.332109 15.7860937 116.793516 12.2123437 119.011172 8.3540625 119.264766 7.91296875 119.939297 8.07023437 119.965078 8.57859375 120.365156 16.4819531 117.345469 25.7294531 109.988438 29.4592969 110.721563 26.0983594 111.249844 22.678125 111.467813 19.2426562z"/>
      <path d="M109.988906 29.4567187C108.186328 25.7477344 106.168594 22.2970312 103.803516 18.9522656 103.522969 18.5554687 102.893672 18.7373437 102.873281 19.2229687 102.585234 26.0500781 103.756641 33.2669531 107.027812 39.2599219 108.240469 36.0700781 109.263281 32.7935156 109.988906 29.4567187zM107.027109 39.2622656C110.746406 36.871875 114.143906 34.2583594 117.402891 31.3225781 117.778828 30.9839062 118.368516 31.3375781 118.24125 31.8271875 116.277891 39.3761719 110.663203 47.1229687 102.669609 48.49125 104.331328 45.5240625 105.819844 42.4441406 107.027109 39.2622656z"/>
      <path d="M102.671016 48.4891406C102.019453 44.4428906 101.087578 40.5829687 99.7903125 36.7239844 99.6360938 36.2650781 98.9842969 36.2561719 98.8225781 36.7127344 96.5538281 43.1177344 95.6348438 50.34375 97.0035938 56.9845313 99.084375 54.2915625 101.009297 51.4614844 102.671016 48.4891406zM97.0021875 56.9866406C101.241797 55.7854687 105.247266 54.2833594 109.214062 52.4421094 109.672266 52.2292969 110.131641 52.7392969 109.8675 53.1698437 105.788906 59.8211719 98.1529687 65.5797656 90.1103906 64.5874219 92.5792969 62.2221094 94.9122656 59.6953125 97.0021875 56.9866406z"/>
      <path d="M90.1122656,64.5857812 C90.6907031,60.5090625 90.9365625,56.5328906 90.8228906,52.445625 C90.8095312,51.9611719 90.1879687,51.7626562 89.9001562,52.1526562 C85.8379687,57.66 82.8075,64.35 82.0823437,71.1325781 C84.9070312,69.1474219 87.6192187,66.9775781 90.1122656,64.5857812 Z"/>
    </g>
    <path fill="#F7BC14" d="M41.2741406 82.8213281C38.0282813 81.2207813 35.0613281 79.479375 32.4553125 77.6460938 32.4546094 77.645625 32.4541406 77.6453906 32.4534375 77.6449219 32.4529687 77.6446875 32.4527344 77.6442188 32.4522656 77.6439844 29.5439063 75.6002344 26.9217188 73.4629688 24.6576562 71.2910156 24.6571875 71.2905469 24.6567187 71.2898438 24.65625 71.289375 22.1149219 68.8551562 19.8630469 66.3721875 17.9627344 63.9091406 17.9622656 63.9084375 17.9615625 63.9077344 17.9610937 63.9070312 17.9608594 63.9067969 17.9608594 63.9065625 17.960625 63.9063281 15.8170312 61.1317969 13.9647656 58.3560938 12.4553906 55.655625 12.4546875 55.6542187 12.45375 55.6530469 12.4530469 55.6516406 10.7411719 52.59375 9.3178125 49.5799219 8.2228125 46.6933594 8.22234375 46.6921875 8.221875 46.69125 8.22140625 46.6903125L8.22140625 46.6900781C6.97078125 43.3992188 6.00304687 40.19625 5.3446875 37.17 5.3446875 37.1695313 5.34445312 37.1692969 5.34445312 37.1690625 4.58859375 33.7038281 4.10507812 30.3670313 3.9075 27.2519531 3.9075 27.2503125 3.90703125 27.2489063 3.90703125 27.2475 3.67734375 23.6599219 3.7059375 20.2403906 3.99210937 17.0840625 3.995625 17.0458594 3.995625 17.0078906 3.9965625 16.9699219 4.374375 12.0890625 5.27789062 7.19648438 6.68648437 2.4253125 6.96960937 1.46601563 6.42140625.45890625 5.46210937.17578125 4.50328125-.107578125 3.49570312.440390625 3.21257812 1.40015625 1.71703125 6.46617188.761015625 11.664375.37125 16.8503906.368671875 16.8857813.369375 16.9204688.368671875 16.9553906.082265625 20.2417969.0553125 23.7803906.292265625 27.4795313.292265625 27.4802344.292265625 27.4807031.292265625 27.4814063.501328125 30.7755469 1.0096875 34.2911719 1.80351562 37.93125 1.80421875 37.9340625 1.80445312 37.9371094 1.80492187 37.9399219 2.50125 41.1414844 3.52078125 44.5185938 4.83539062 47.9767969 4.835625 47.9772656 4.835625 47.9777344 4.83585937 47.9782031 5.994375 51.0316406 7.49390625 54.2090625 9.29296875 57.4221094 9.29320312 57.4225781 9.2934375 57.4230469 9.29367187 57.4235156 9.294375 57.4246875 9.29484375 57.425625 9.29554687 57.4265625 9.29554687 57.4265625 9.29554687 57.4265625 9.29578125 57.4267969 10.8921094 60.2814844 12.8428125 63.2064844 15.0942187 66.1207031 15.0951562 66.121875 15.0960937 66.1225781 15.0967969 66.12375 17.105625 68.7269531 19.4772656 71.3435156 22.1460937 73.9003125 22.1467969 73.9010156 22.1472656 73.9017187 22.1479687 73.9024219 24.5444531 76.201875 27.3107812 78.4577344 30.3703125 80.6076562 30.3707812 80.6078906 30.3710156 80.608125 30.3714844 80.6083594 33.1296094 82.5492187 36.2589844 84.3867187 39.6721875 86.07 39.93 86.1970312 40.2030469 86.2572656 40.471875 86.2572656 41.1396094 86.2572656 41.7822656 85.88625 42.0975 85.246875 42.5397656 84.3496875 42.1710938 83.2638281 41.2741406 82.8213281zM106.506328 16.9553906C106.505625 16.9204687 106.506328 16.8860156 106.50375 16.8508594 106.113984 11.6639062 105.157969 6.46546875 103.662422 1.40039062 103.379297.441328125 102.372422-.105703125 101.412656.17625 100.453359.459375 99.9053906 1.46671875 100.188516 2.42601562 101.596875 7.19601562 102.500391 12.0883594 102.878438 16.9696875 102.879609 17.0078906 102.879609 17.0460937 102.883125 17.0845313 103.169297 20.2396875 103.197891 23.6594531 102.968203 27.2484375 102.968203 27.2491406 102.968203 27.2498438 102.968203 27.2503125 102.968203 27.2510156 102.967969 27.2514844 102.967969 27.2521875 102.770391 30.3658594 102.286875 33.7024219 101.530781 37.1692969 101.530781 37.1695313 101.530547 37.17 101.530547 37.1702344 100.872656 40.1964844 99.9046875 43.3994531 98.6538281 46.6900781 98.6535938 46.6905469 98.6535938 46.6907813 98.6533594 46.69125 98.653125 46.6921875 98.6526563 46.6928906 98.6521875 46.6935938 97.5574219 49.5799219 96.1335938 52.5946875 94.4203125 55.6549219 94.4200781 55.6551562 94.4198438 55.655625 94.4196094 55.6558594 92.9104688 58.355625 91.0582031 61.1313281 88.9141406 63.9065625 88.9136719 63.9072656 88.9132031 63.9079688 88.9127344 63.9086719 88.9125 63.9089063 88.9125 63.9089063 88.9122656 63.9091406 87.0126563 66.37125 84.7603125 68.8542188 82.21875 71.289375 82.2182813 71.2898438 82.2178125 71.2905469 82.2173438 71.2910156 79.9542188 73.4622656 77.3315625 75.5997656 74.4225 77.6439844 74.4217969 77.6444531 74.4210938 77.6451563 74.4201563 77.6458594 74.4199219 77.6458594 74.4196875 77.6460938 74.4194531 77.6460938 71.8134375 79.4798438 68.8464844 81.2210156 65.600625 82.8213281 64.7034375 83.2635938 64.3347656 84.3494531 64.7772656 85.2464063 65.0925 85.88625 65.7349219 86.2570313 66.4028906 86.2570313 66.6717188 86.2570313 66.9447656 86.1967969 67.2023438 86.0697656 70.6150781 84.3869531 73.7439844 82.5496875 76.5021094 80.6090625 76.5030469 80.6083594 76.5039844 80.608125 76.5049219 80.6074219 79.5649219 78.4567969 82.33125 76.2009375 84.7270313 73.9021875 84.7277344 73.9014844 84.7282031 73.9007813 84.7289063 73.9000781 87.3989063 71.3416406 89.77125 68.7246094 91.7796094 66.1216406 91.7798438 66.1216406 91.7798438 66.1214063 91.7800781 66.1211719 91.7803125 66.1209375 91.7805469 66.1207031 91.7807813 66.1204688 94.0333594 63.204375 95.9852344 60.2782031 97.5813281 57.4232813 97.5825 57.4214063 97.5832031 57.4195313 97.5841406 57.4176563 99.3827344 54.2048438 100.881563 51.0288281 102.038672 47.9782031 102.038672 47.9779688 102.038906 47.9779688 102.038906 47.9775 102.038906 47.9772656 102.039141 47.9772656 102.039141 47.9767969 103.353047 44.5204688 104.371875 41.1454688 105.068203 37.9453125 105.068438 37.9446094 105.068672 37.9441406 105.068906 37.9434375 105.864141 34.2972656 106.373438 30.7774219 106.5825 27.4811719 106.582734 27.4785938 106.5825 27.47625 106.5825 27.4739063 106.819453 23.7754688 106.7925 20.23875 106.506328 16.9553906z" transform="translate(6.563)"/>
    <path fill="#FFB125" d="M22.2871875 31.1746875C17.06625 31.1749219 11.9775 29.325 7.92820312 25.8792187 2.93273438 21.628125.0675 15.4289063.0675 8.87132812L.0675 2.74757813C.0675 2.03976563.34359375 1.37414062.8446875.87421875 1.34414062.376171875 2.00742187.101953125 2.71242188.101953125 2.71476562.101953125 2.71710938.101953125 2.71945313.101953125L18.7525781.137109375C19.7526563.13921875 20.5617188.951796875 20.5596094 1.95210938 20.5572656 2.95078125 19.7467969 3.75914063 18.7488281 3.75914063 18.7474219 3.75914063 18.7460156 3.75914063 18.7446094 3.75914063L3.68953125 3.72609375 3.68929688 8.87109375C3.68929688 14.3648438 6.08976562 19.5585938 10.2752344 23.1203906 14.4285938 26.6547656 19.8888281 28.1835938 25.2529687 27.3133594 25.4390625 27.283125 25.6263281 27.2514844 25.8154687 27.2184375 26.8017187 27.0475781 27.7392187 27.7047656 27.9117187 28.6898438 28.0842187 29.6751563 27.4253906 30.6135938 26.4403125 30.7860938 26.2361719 30.8217188 26.0334375 30.8561719 25.8325781 30.88875 24.6515625 31.0804688 23.465625 31.1746875 22.2871875 31.1746875zM42.8690625 31.1746875C41.6901562 31.1746875 40.5051562 31.0804688 39.3234375 30.8889844 39.1225781 30.8564062 38.9198437 30.8219531 38.7157031 30.7863281 37.7303906 30.6138281 37.0717969 29.6751563 37.2442969 28.6900781 37.4167969 27.7047656 38.3564062 27.0473437 39.3405469 27.2186719 39.5294531 27.2519531 39.7169531 27.2835937 39.9030469 27.3135937 45.2683594 28.183125 50.7274219 26.655 54.8807812 23.120625 59.06625 19.5590625 61.4667187 14.3653125 61.4667187 8.87132812L61.4667187 3.72632812 46.4116406 3.759375C46.4102344 3.759375 46.4088281 3.759375 46.4074219 3.759375 45.4092187 3.759375 44.59875 2.95125 44.5966406 1.95234375 44.5942969.95203125 45.4033594.139453125 46.4036719.13734375L62.4375.1021875C62.4398437.1021875 62.4421875.1021875 62.4445312.1021875 63.1490625.1021875 63.8121094.376171875 64.3117969.874453125 64.8128906 1.37460937 65.0889844 2.03976562 65.0889844 2.7478125L65.0889844 8.8715625C65.0889844 15.4291406 62.2239844 21.6283594 57.2282812 25.8794531 53.1789844 29.3247656 48.0897656 31.1746875 42.8690625 31.1746875z" transform="translate(27.422 21.563)"/>
    <path fill="#FED130" d="M48.0925781,78.9827344 L71.9071875,78.9827344 C62.0425781,66.4732031 63.0719531,48.4446094 63.0719531,48.4446094 L60,48.4446094 L56.9280469,48.4446094 C56.9280469,48.4448438 57.9574219,66.4734375 48.0925781,78.9827344 Z"/>
    <path fill="#F7BC14" d="M63.0719531,48.4448437 L60,48.4448437 L56.9280469,48.4448437 C56.9280469,48.4448437 57.0874219,51.2439844 56.6775,55.4013281 C55.8960938,63.3257812 57.8617969,71.3198437 62.4996094,77.7925781 C62.7874219,78.1942969 63.0855469,78.5913281 63.3942188,78.9827344 L71.9074219,78.9827344 C62.0425781,66.4734375 63.0719531,48.4448437 63.0719531,48.4448437 Z"/>
    <path fill="#FED130" d="M42.0358594,16.4749219 L42.0358594,32.274375 C42.0358594,41.6217188 46.4784375,50.4126563 54.0039844,55.9570313 C57.5697656,58.5839063 62.4302344,58.5839063 65.9960156,55.9570313 C73.5215625,50.4128906 77.9641406,41.6217188 77.9641406,32.274375 L77.9641406,16.4749219 L42.0358594,16.4749219 Z"/>
    <path fill="#F7BC14" d="M69.410625,16.4749219 L69.410625,32.274375 C69.410625,41.6217187 64.9680469,50.4126562 57.4425,55.9570313 C56.8966406,56.3592188 56.3203125,56.6990625 55.723125,56.9779688 C59.0273438,58.5217969 62.9758594,58.1819531 65.9957813,55.9570313 C73.5213281,50.4128906 77.9639063,41.6217187 77.9639063,32.274375 L77.9639063,16.4749219 L69.410625,16.4749219 Z"/>
    <path fill="#FFB125" d="M79.2510937,18.9428906 L40.7489062,18.9428906 C40.1685937,18.9428906 39.6982031,18.4725 39.6982031,17.8921875 L39.6982031,13.5379687 C39.6982031,12.9576562 40.1685937,12.4872656 40.7489062,12.4872656 L79.2510937,12.4872656 C79.8314062,12.4872656 80.3017969,12.9576562 80.3017969,13.5379687 L80.3017969,17.8921875 C80.3015625,18.4725 79.8311719,18.9428906 79.2510937,18.9428906 Z"/>
    <path fill="#FF901D" d="M79.2510937,12.4875 L71.7482812,12.4875 L71.7482812,18.9428906 L79.2510937,18.9428906 C79.8314063,18.9428906 80.3015625,18.4725 80.3015625,17.8921875 L80.3015625,13.5379688 C80.3015625,12.9578906 79.8311719,12.4875 79.2510937,12.4875 Z"/>
    <path fill="#FFB125" d="M80.4290625,86.6177344 L39.7321875,86.6177344 C39.1422656,86.6177344 38.7328125,86.0301563 38.9371875,85.4767969 L41.9594531,77.2877344 C42.0822656,76.9546875 42.3996094,76.7336719 42.7544531,76.7336719 L77.4067969,76.7336719 C77.7616406,76.7336719 78.0789844,76.9546875 78.2017969,77.2877344 L81.2240625,85.4767969 C81.4284375,86.0301563 81.0189844,86.6177344 80.4290625,86.6177344 Z"/>
    <path fill="#FF901D" d="M81.2242969,85.4767969 L78.2020313,77.2877344 C78.0789844,76.9546875 77.761875,76.7336719 77.4067969,76.7336719 L69.1413281,76.7336719 L72.7891406,86.6177344 L80.4290625,86.6177344 C81.0189844,86.6177344 81.4284375,86.0301563 81.2242969,85.4767969 Z"/>
  </g>
</svg>
