<svg xmlns="http://www.w3.org/2000/svg" width="213" height="170" viewBox="0 0 213 170">
  <defs>
    <linearGradient id="dashboard为空-a" x1="50%" x2="50%" y1="0%" y2="100%">
      <stop offset="0%" stop-color="#838698"/>
      <stop offset="100%" stop-color="#FFF" stop-opacity=".2"/>
    </linearGradient>
  </defs>
  <g fill="none" fill-rule="evenodd">
    <g opacity=".8" transform="translate(0 20.047)">
      <path fill="#DEE0ED" d="M10.2830188,1.28771656e-14 L164.528302,1.28771656e-14 C171.383648,1.28771656e-14 174.811321,3.43665775 174.811321,10.3099732 L174.811321,119.595687 C174.811321,126.469003 171.383648,129.90566 164.528302,129.90566 L10.2830188,129.90566 C3.42767295,129.90566 0,126.469003 0,119.595687 L0,10.3099732 C0,3.4366579 3.42767295,1.51024995e-07 10.2830188,1.28771656e-14 Z"/>
      <path fill="#CFD5F1" d="M68.2536199,8.01886792 L148.255814,8.01886792 C150.990932,8.01886792 152.358491,9.35534595 152.358491,12.028302 C152.358491,14.7012579 150.990932,16.0377358 148.255814,16.0377358 L68.2536199,16.0377358 C65.5185022,16.0377358 64.1509434,14.7012579 64.1509434,12.028302 C64.1509434,9.3553461 65.5185022,8.01886807 68.2536199,8.01886792 Z"/>
      <path fill="#F9FAFF" d="M14.4339622 8.01886792C17.1069181 8.01886792 18.4433961 9.35534595 18.4433962 12.028302 18.4433962 14.7012579 17.1069182 16.0377358 14.4339622 16.0377358 11.7610063 16.0377358 10.4245283 14.7012579 10.4245283 12.028302 10.4245283 9.3553461 11.7610063 8.01886807 14.4339622 8.01886792zM28.8679246 8.01886792C31.5408805 8.01886792 32.8773585 9.35534595 32.8773585 12.028302 32.8773585 14.7012579 31.5408805 16.0377358 28.8679246 16.0377358 26.1949687 16.0377358 24.8584907 14.7012579 24.8584906 12.028302 24.8584906 9.3553461 26.1949686 8.01886807 28.8679246 8.01886792zM43.3018867 8.01886792C45.9748426 8.01886792 47.3113206 9.35534595 47.3113208 12.028302 47.3113208 14.7012579 45.9748427 16.0377358 43.3018867 16.0377358 40.6289308 16.0377358 39.2924528 14.7012579 39.2924528 12.028302 39.2924528 9.3553461 40.6289308 8.01886807 43.3018867 8.01886792z"/>
      <path fill="#F2F4FD" d="M0,24.8584906 L174.811321,24.8584906 L174.811321,119.606918 C174.811321,125.294914 170.207613,129.90566 164.528302,129.90566 L10.2830188,129.90566 C4.60370745,129.90566 0,125.294914 0,119.606918 L0,24.8584906 Z"/>
      <path fill="#DEE0ED" d="M14.4339623 46.1084905C14.4339622 49.4030859 16.1916079 52.4474176 19.0448113 54.0947154 21.8980146 55.7420131 25.4133061 55.7420131 28.2665095 54.0947154 31.1197128 52.4474176 32.8773586 49.4030859 32.8773585 46.1084905 32.8773585 41.0154873 28.7486636 36.8867925 23.6556604 36.8867925 18.5626571 36.8867925 14.4339623 41.0154873 14.4339623 46.1084905zM14.4339623 77.3820754C14.4339622 80.6766708 16.1916079 83.7210026 19.0448113 85.3683003 21.8980146 87.015598 25.4133061 87.015598 28.2665095 85.3683003 31.1197128 83.7210026 32.8773586 80.6766708 32.8773585 77.3820754 32.8773585 72.2890722 28.7486636 68.1603774 23.6556604 68.1603774 18.5626571 68.1603774 14.4339623 72.2890722 14.4339623 77.3820754zM14.4339623 107.853773C14.4339622 111.148369 16.1916079 114.192701 19.0448113 115.839998 21.8980146 117.487296 25.4133061 117.487296 28.2665095 115.839998 31.1197128 114.192701 32.8773586 111.148369 32.8773585 107.853773 32.8773585 102.76077 28.7486636 98.6320755 23.6556604 98.6320755 18.5626571 98.6320755 14.4339623 102.76077 14.4339623 107.853773z"/>
      <path fill="#E8EAF4" d="M45.3673529 40.0943396L109.396798 40.0943396C110.773776 40.0943396 111.462264 40.7625786 111.462264 42.0990566 111.462264 43.4355346 110.773776 44.1037736 109.396798 44.1037736L45.3673529 44.1037736C43.9903757 44.1037736 43.3018869 43.4355346 43.3018868 42.0990566 43.3018868 40.7625786 43.9903755 40.0943396 45.3673529 40.0943396zM45.3673529 71.3679245L109.396798 71.3679245C110.773776 71.3679245 111.462264 72.0361635 111.462264 73.3726414 111.462264 74.7091193 110.773776 75.3773583 109.396798 75.3773585L45.3673529 75.3773585C43.9903757 75.3773585 43.3018869 74.7091195 43.3018868 73.3726414 43.3018868 72.0361635 43.9903755 71.3679245 45.3673529 71.3679245zM45.3673529 101.839623L109.396798 101.839623C110.773776 101.839623 111.462264 102.507862 111.462264 103.84434 111.462264 105.180818 110.773776 105.849057 109.396798 105.849057L45.3673529 105.849057C43.9903757 105.849057 43.3018869 105.180818 43.3018868 103.84434 43.3018868 102.507862 43.9903755 101.839623 45.3673529 101.839623zM45.3391129 48.1132075L78.95334 48.1132075C80.3114905 48.1132075 80.9905659 48.7814465 80.990566 50.1179245 80.990566 51.4544025 80.3114907 52.1226415 78.95334 52.1226415L45.3391129 52.1226415C43.9809623 52.1226415 43.3018869 51.4544025 43.3018868 50.1179245 43.3018868 48.7814465 43.9809621 48.1132075 45.3391129 48.1132075zM45.3391129 79.3867925L78.95334 79.3867925C80.3114905 79.3867925 80.9905659 80.0550314 80.990566 81.3915094 80.990566 82.7279874 80.3114907 83.3962264 78.95334 83.3962264L45.3391129 83.3962264C43.9809623 83.3962264 43.3018869 82.7279874 43.3018868 81.3915094 43.3018868 80.0550314 43.9809621 79.3867925 45.3391129 79.3867925zM45.3391129 109.858491L78.95334 109.858491C80.3114905 109.858491 80.9905659 110.52673 80.990566 111.863208 80.990566 113.199686 80.3114907 113.867925 78.95334 113.867925L45.3391129 113.867925C43.9809623 113.867925 43.3018869 113.199686 43.3018868 111.863208 43.3018868 110.52673 43.9809621 109.858491 45.3391129 109.858491z"/>
      <path fill="#F2F4FD" d="M91.8468797 46.509434L114.238026 46.509434C115.595065 46.509434 116.273585 47.1967656 116.273585 48.5714287L116.273585 58.8814017C116.273585 60.2560647 115.595065 60.9433962 114.238026 60.9433962L91.8468797 60.9433962C90.4898406 60.9433962 89.8113209 60.2560647 89.8113208 58.8814017L89.8113208 48.5714287C89.8113208 47.1967657 90.4898404 46.5094341 91.8468797 46.509434zM126.29717 47.3113208L138.325472 47.3113208C139.66195 47.3113208 140.330189 47.9795597 140.330189 49.3160377 140.330189 50.6525157 139.66195 51.3207547 138.325472 51.3207547L126.29717 51.3207547C124.960692 51.3207547 124.292453 50.6525157 124.292453 49.3160377 124.292453 47.9795597 124.960692 47.3113208 126.29717 47.3113208zM149.551887 47.3113208L161.580189 47.3113208C162.916667 47.3113208 163.584906 47.9795597 163.584906 49.3160377 163.584906 50.6525157 162.916667 51.3207547 161.580189 51.3207547L149.551887 51.3207547C148.215409 51.3207547 147.54717 50.6525157 147.54717 49.3160377 147.54717 47.9795597 148.215409 47.3113208 149.551887 47.3113208zM126.29717 55.3301887L138.325472 55.3301887C139.66195 55.3301887 140.330189 55.9984277 140.330189 57.3349058 140.330189 58.6713837 139.66195 59.3396226 138.325472 59.3396226L126.29717 59.3396226C124.960692 59.3396226 124.292453 58.6713837 124.292453 57.3349058 124.292453 55.9984279 124.960692 55.3301888 126.29717 55.3301887zM149.551887 55.3301887L161.580189 55.3301887C162.916667 55.3301887 163.584906 55.9984277 163.584906 57.3349058 163.584906 58.6713837 162.916667 59.3396226 161.580189 59.3396226L149.551887 59.3396226C148.215409 59.3396226 147.54717 58.6713837 147.54717 57.3349058 147.54717 55.9984279 148.215409 55.3301888 149.551887 55.3301887z"/>
    </g>
    <g opacity=".6" transform="translate(76.981)">
      <g transform="translate(0 77.783)">
        <path fill="#6776C4" d="M21.2159173,13.9807577 L68.3839351,2.05917078 L68.3839351,91.7302376 L22.377801,70.4966372 C21.6695001,70.1697291 21.2159173,69.4608203 21.2159173,68.6807184 L21.2159173,13.9807577 Z"/>
        <path fill="#8694DF" d="M69.4111292,13.5991304 L115.06923,2.05917078 L115.06923,91.7302376 L69.0630961,70.4966372 C68.3547952,70.1697291 67.9012124,69.4608203 67.9012124,68.6807184 L67.9012124,15.5381555 C67.9012124,14.6223465 68.5232408,13.8235417 69.4111292,13.5991304 Z" transform="matrix(-1 0 0 1 182.97 0)"/>
        <path fill="#94A2EB" d="M22.2638335,14.3607713 L65.2447602,29.9472612 C66.2831601,30.3238238 66.8196853,31.4708775 66.4431227,32.5092774 C66.3308485,32.818882 66.1438566,33.0959701 65.8987528,33.3159351 L49.0563494,48.4309125 C48.5097057,48.9214901 47.7381432,49.072962 47.0466016,48.8254629 L2.32304567,32.8191376 C1.28307419,32.4469373 0.741738696,31.3021459 1.11393902,30.2621744 C1.24012355,29.9096 1.46275906,29.599534 1.75650281,29.3672715 L20.3415354,14.6721294 C20.8850949,14.2423382 21.6123964,14.1245358 22.2638335,14.3607713 Z"/>
        <path fill="#94A2EB" d="M91.2373128,14.3607713 L134.21824,29.9472612 C135.256639,30.3238238 135.793165,31.4708775 135.416602,32.5092774 C135.304328,32.818882 135.117336,33.0959701 134.872232,33.3159351 L118.029829,48.4309125 C117.483185,48.9214901 116.711623,49.072962 116.020081,48.8254629 L71.296525,32.8191376 C70.2565535,32.4469373 69.715218,31.3021459 70.0874184,30.2621744 C70.2136029,29.9096 70.4362384,29.599534 70.7299821,29.3672715 L89.3150147,14.6721294 C89.8585743,14.2423382 90.5858757,14.1245358 91.2373128,14.3607713 Z" transform="matrix(-1 0 0 1 205.07 0)"/>
        <path fill="#94A2EB" d="M114.910565,0.0247339548 L133.729105,2.05917078 L87.4299133,13.8911865 C87.19813,13.95042 86.9575996,13.9675882 86.7197531,13.9418751 L77.4903149,12.944098 C76.5323897,12.8405385 75.8397894,11.9800351 75.9433489,11.0221099 C76.0215723,10.2985438 76.5407492,9.69955661 77.2458702,9.51935903 L114.200405,0.0754224781 C114.432188,0.016188967 114.672718,-0.000979177205 114.910565,0.0247339548 Z" transform="matrix(-1 0 0 1 194.657 0)"/>
        <path fill="#94A2EB" d="M49.5653945,0.0247339548 L68.3839351,2.05917078 L22.084743,13.8911865 C21.8529597,13.95042 21.6124293,13.9675882 21.3745828,13.9418751 L12.1451447,12.944098 C11.1872194,12.8405385 10.4946192,11.9800351 10.5981786,11.0221099 C10.676402,10.2985438 11.195579,9.69955661 11.9006999,9.51935903 L48.8552342,0.0754224781 C49.0870175,0.016188967 49.327548,-0.000979177205 49.5653945,0.0247339548 Z"/>
        <path fill="#5665B2" d="M73.4276818,12.9422845 L114.830223,2.59164933 L114.830223,32.1364517 L73.2194528,16.7585585 C72.1833727,16.3756593 71.6538649,15.2253493 72.0367641,14.1892692 C72.2658776,13.5693149 72.7864797,13.102585 73.4276818,12.9422845 Z" transform="matrix(-1 0 0 1 181.974 0)"/>
        <path fill="#7181D7" d="M26.4986717,12.9422845 L67.9012124,2.59164933 L67.9012124,32.1364517 L26.2904427,16.7585585 C25.2543625,16.3756593 24.7248548,15.2253493 25.1077539,14.1892692 C25.3368675,13.5693149 25.8574696,13.102585 26.4986717,12.9422845 Z"/>
        <path fill="#5665B2" d="M66.4212558,31.1609832 C67.1364645,31.6571277 67.4679786,32.5841584 67.1733377,33.4490722 C67.1146912,33.6212278 67.0328368,33.7845797 66.9300377,33.9346108 L50.1674682,58.3989015 C49.62888,59.1849491 48.6105362,59.4818775 47.7338793,59.1084865 L22.4678004,48.3470085 C21.7302336,48.0328596 21.2515245,47.3086427 21.2515245,46.5069605 L21.2515245,39.737563 L47.0822088,48.982229 C47.7737504,49.2297281 48.5453129,49.0782562 49.0919565,48.5876786 L65.93436,33.4727012 C66.1794638,33.2527362 66.3664557,32.9756481 66.4787299,32.6660435 C66.6637538,32.1558259 66.6283359,31.6193766 66.4212558,31.1609832 Z"/>
        <path fill="#5665B2" d="M113.465823,31.1609832 C114.181031,31.6571277 114.512546,32.5841584 114.217905,33.4490722 C114.159258,33.6212278 114.077404,33.7845797 113.974605,33.9346108 L97.2120351,58.3989015 C96.6734469,59.1849491 95.6551032,59.4818775 94.7784463,59.1084865 L69.5123674,48.3470085 C68.7748005,48.0328596 68.2960915,47.3086427 68.2960915,46.5069605 L68.2960915,39.737563 L94.1267758,48.982229 C94.8183174,49.2297281 95.5898799,49.0782562 96.1365235,48.5876786 L112.978927,33.4727012 C113.224031,33.2527362 113.411023,32.9756481 113.523297,32.6660435 C113.708321,32.1558259 113.672903,31.6193766 113.465823,31.1609832 Z" transform="matrix(-1 0 0 1 182.847 0)"/>
      </g>
      <g transform="translate(36.887)">
        <path stroke="url(#dashboard为空-a)" stroke-linecap="square" d="M34.8532011,109.457547 C26.299742,103.577044 20.5625114,95.9591195 17.6415094,86.6037736 C13.2600064,72.5707547 27.8800032,50.9198113 22.6388647,36.8867925 C17.3977262,22.8537736 7.27010208,23.0868093 4.381503,24.4575472 C1.49290391,25.8282851 -3.83421588,32.7679757 4.381503,44.504717 C12.5972219,56.2414582 23.3406318,57.7946333 26.8343332,56.5330189 C34.0513143,53.9268868 34.8486581,51.4041362 38.4616917,47.7122642 C44.0200161,42.032654 45.2777294,31.600684 45.2777294,26.8632075 C45.2777294,16.7059748 43.0057168,10.6918239 38.4616917,8.82075472"/>
        <g transform="translate(29.67)">
          <circle cx="2.406" cy="8.821" r="2.406" fill="#D7DDFF"/>
          <ellipse cx="6.415" cy="6.014" fill="#838698" rx="4.009" ry="2.807" transform="rotate(45 6.415 6.014)"/>
          <circle cx="3.208" cy="3.208" r="1.604" fill="#838698" transform="rotate(45 3.208 3.208)"/>
          <circle cx="8.821" cy="2.406" r="2.406" fill="#D7DDFF"/>
        </g>
      </g>
      <path fill="#FFBA1C" d="M36.8867925 136.320755C37.6467611 138.502456 38.1813523 139.695005 38.490566 139.898403 38.7997798 140.101801 39.334371 139.803664 40.0943396 139.003991 40.3660464 140.586809 40.633342 141.37802 40.8962264 141.377624 41.3221545 141.376982 41.9302303 138.987333 42.0990566 139.003991 42.2300143 139.016913 42.6693026 141.203957 43.3018868 141.377624 43.6183016 141.464491 44.0881166 139.899452 44.9056604 139.898403 45.2302961 139.897987 44.9829173 141.181139 45.7075472 141.377624 46.0161646 141.461306 46.5507558 141.197569 47.3113208 140.586413L47.3113208 159.575472 36.8867925 155.103411 36.8867925 136.320755zM100.235849 136.320755L100.235849 154.208999 89.8113208 159.575472 89.8113208 140.586413C90.5718857 141.197569 91.1064769 141.461306 91.4150943 141.377624 92.1397242 141.181139 91.8923454 139.897987 92.2169811 139.898403 93.0345249 139.899452 93.5043399 141.464491 93.8207547 141.377624 94.4533389 141.203957 94.8926272 139.016913 95.0235849 139.003991 95.1924112 138.987333 95.800487 141.376982 96.2264151 141.377624 96.4892995 141.37802 96.7565951 140.586809 97.0283019 139.003991 97.7882705 139.803664 98.3228617 140.101801 98.6320755 139.898403 98.9412892 139.695005 99.4758804 138.502456 100.235849 136.320755z"/>
    </g>
  </g>
</svg>
